<?xml version="1.0" standalone="no"?>
<!DOCTYPE svg PUBLIC "-//W3C//DTD SVG 20010904//EN"
 "http://www.w3.org/TR/2001/REC-SVG-20010904/DTD/svg10.dtd">
<svg version="1.0" xmlns="http://www.w3.org/2000/svg"
 width="1080.000000pt" height="1080.000000pt" viewBox="0 0 1080.000000 1080.000000"
 preserveAspectRatio="xMidYMid meet">
<metadata>
Created by potrace 1.16, written by Peter Selinger 2001-2019
</metadata>
<g transform="translate(0.000000,1080.000000) scale(0.100000,-0.100000)"
fill="#000000" stroke="none">
<path d="M5028 9564 c-170 -41 -251 -135 -252 -294 -1 -110 18 -165 79 -226
67 -67 141 -94 286 -101 258 -14 410 63 444 225 l7 32 -109 0 -108 0 -17 -29
c-27 -48 -71 -65 -168 -65 -136 0 -193 45 -193 153 0 64 16 99 57 126 57 37
218 36 270 -2 14 -10 30 -30 35 -45 l10 -28 111 0 111 0 -7 38 c-21 114 -106
189 -252 221 -71 15 -234 13 -304 -5z"/>
<path d="M4140 9260 l0 -310 110 0 110 0 0 310 0 310 -110 0 -110 0 0 -310z"/>
<path d="M6010 9260 l0 -310 325 0 325 0 0 75 0 75 -220 0 -220 0 0 40 0 40
210 0 210 0 0 80 0 80 -210 0 -210 0 0 35 0 35 215 0 215 0 0 80 0 80 -320 0
-320 0 0 -310z"/>
<path d="M4480 9055 l0 -105 105 0 105 0 0 105 0 105 -105 0 -105 0 0 -105z"/>
<path d="M5670 9055 l0 -105 110 0 110 0 0 105 0 105 -110 0 -110 0 0 -105z"/>
<path d="M5380 8070 c0 -5 -13 -10 -30 -10 -20 0 -30 -5 -30 -15 0 -8 -7 -15
-15 -15 -8 0 -15 -4 -15 -10 0 -6 -27 -10 -60 -10 -33 0 -60 -4 -60 -9 0 -4
-28 -11 -62 -14 -34 -3 -64 -10 -66 -16 -2 -7 -32 -11 -73 -11 -38 0 -69 -4
-69 -9 0 -4 -27 -11 -60 -15 -33 -4 -60 -11 -60 -16 0 -6 -16 -10 -36 -10 -35
0 -64 -18 -64 -39 0 -6 -7 -11 -15 -11 -9 0 -15 -9 -15 -21 0 -22 -22 -49 -39
-49 -6 0 -11 -5 -11 -11 0 -6 -16 -25 -35 -43 -19 -19 -35 -37 -35 -42 0 -5
-11 -21 -25 -36 -14 -15 -25 -32 -25 -38 0 -5 -5 -10 -11 -10 -13 0 -39 -25
-39 -39 0 -5 -11 -21 -25 -35 -14 -14 -25 -30 -25 -36 0 -5 -7 -10 -15 -10 -8
0 -15 -5 -15 -10 0 -6 -11 -22 -25 -36 -14 -14 -25 -30 -25 -35 0 -6 -16 -25
-35 -43 -19 -19 -35 -37 -35 -40 0 -11 -27 -36 -39 -36 -6 0 -11 -9 -11 -21 0
-22 -22 -49 -39 -49 -6 0 -11 -5 -11 -11 0 -7 -11 -22 -25 -35 -28 -26 -33
-68 -10 -90 8 -9 15 -26 15 -40 0 -13 5 -24 10 -24 6 0 10 -21 10 -46 0 -27 6
-51 15 -60 8 -9 15 -33 15 -55 0 -21 5 -39 10 -39 6 0 10 -13 10 -30 0 -32 30
-70 55 -70 8 0 15 -4 15 -10 0 -5 -4 -10 -10 -10 -6 0 -10 -40 -10 -100 0 -55
4 -100 9 -100 5 0 13 -25 16 -55 4 -30 11 -55 16 -55 5 0 9 6 9 14 0 8 7 16
15 20 8 3 15 15 15 26 0 13 7 20 20 20 11 0 20 -4 20 -9 0 -5 11 -12 25 -15
30 -8 33 -26 5 -26 -13 0 -22 -9 -26 -25 -9 -37 2 -55 33 -55 56 -1 60 -11 68
-190 4 -90 12 -172 19 -182 9 -16 26 -18 128 -18 108 0 117 -2 123 -20 3 -11
11 -20 16 -20 5 0 9 -11 9 -24 0 -53 6 -56 102 -56 64 0 93 4 104 14 16 16 19
86 4 86 -5 0 -10 11 -10 25 0 24 2 25 73 25 39 0 108 -7 152 -15 44 -8 110
-14 148 -15 65 0 67 -1 67 -25 0 -14 -4 -25 -10 -25 -5 0 -10 -16 -10 -35 l0
-35 395 0 c225 0 395 4 395 9 0 5 11 12 25 15 14 4 25 11 25 16 0 6 7 10 15
10 8 0 15 5 15 10 0 6 9 10 21 10 11 0 27 6 34 13 8 6 21 18 30 25 12 10 15
35 15 112 0 60 4 100 10 100 6 0 10 26 10 59 0 84 4 91 56 91 l44 0 0 50 c0
28 -4 50 -10 50 -19 0 -10 38 11 43 34 9 49 -3 49 -39 0 -40 15 -45 24 -9 4
14 11 25 16 25 6 0 10 27 10 61 0 33 5 70 12 82 6 12 12 52 12 89 1 47 5 68
14 68 6 0 12 6 12 14 0 8 5 16 12 18 6 2 13 37 16 86 2 45 8 82 13 82 5 0 9
11 9 25 0 14 -4 25 -10 25 -5 0 -10 9 -10 20 0 11 -7 23 -15 26 -8 4 -15 17
-15 30 0 13 -4 24 -10 24 -5 0 -10 11 -10 24 0 14 -7 31 -15 40 -8 8 -15 24
-15 35 0 12 -4 21 -9 21 -5 0 -12 11 -15 25 -4 14 -11 25 -16 25 -6 0 -10 11
-10 25 0 14 -4 25 -10 25 -5 0 -10 9 -10 21 0 11 -7 27 -15 35 -8 9 -15 26
-15 40 0 13 -4 24 -9 24 -5 0 -12 11 -15 25 -4 14 -11 25 -16 25 -6 0 -10 11
-10 25 0 14 -4 25 -10 25 -5 0 -10 11 -10 25 0 14 -7 28 -15 31 -8 4 -15 17
-15 30 0 13 -4 24 -10 24 -5 0 -10 11 -10 25 0 14 -4 25 -9 25 -5 0 -12 8 -15
18 -6 18 -59 52 -82 52 -8 0 -14 5 -14 10 0 6 -9 10 -19 10 -21 0 -84 30 -89
43 -2 4 -14 7 -27 7 -13 0 -30 7 -39 15 -8 8 -24 15 -35 15 -12 0 -21 5 -21
10 0 6 -9 10 -21 10 -11 0 -27 7 -35 15 -9 8 -26 15 -40 15 -13 0 -24 5 -24
10 0 6 -11 10 -25 10 -14 0 -25 4 -25 9 0 5 -11 12 -25 15 -14 4 -25 11 -25
16 0 6 -10 10 -21 10 -12 0 -36 15 -53 34 -18 18 -42 37 -54 40 -12 4 -22 12
-22 17 0 5 -16 9 -35 9 -19 0 -35 5 -35 10 0 6 -35 10 -85 10 -50 0 -85 -4
-85 -10z"/>
<path d="M5120 5772 c0 -12 39 -42 55 -42 7 0 16 -4 19 -9 3 -4 24 -11 46 -15
25 -4 51 -16 64 -31 33 -35 99 -35 132 0 19 21 32 25 79 25 42 0 55 3 55 15 0
8 5 15 11 15 14 0 39 25 39 39 0 7 -28 11 -75 11 -43 0 -75 -4 -75 -10 0 -5
-7 -10 -15 -10 -8 0 -15 -7 -15 -15 0 -12 -14 -15 -70 -15 -56 0 -70 3 -70 15
0 8 -7 15 -15 15 -8 0 -15 5 -15 10 0 6 -32 10 -75 10 -41 0 -75 -3 -75 -8z"/>
<path d="M6290 5720 c0 -5 -7 -10 -15 -10 -8 0 -32 -18 -54 -40 -22 -22 -42
-40 -46 -40 -10 0 -35 -28 -35 -39 0 -6 -5 -11 -11 -11 -6 0 -17 -6 -25 -14
-8 -8 -14 -19 -14 -25 0 -6 -11 -11 -25 -11 -14 0 -25 -5 -25 -11 0 -11 -25
-39 -35 -39 -10 0 -35 -28 -35 -39 0 -6 -5 -11 -11 -11 -6 0 -28 -17 -49 -37
-53 -52 -67 -63 -80 -63 -5 0 -10 -5 -10 -11 0 -6 -6 -17 -14 -25 -8 -8 -19
-14 -25 -14 -6 0 -11 -6 -11 -14 0 -7 -7 -19 -15 -26 -10 -8 -15 -31 -15 -71
0 -46 3 -59 15 -59 8 0 15 -4 15 -10 0 -11 -50 -12 -460 -10 l-284 2 -23 26
c-13 15 -23 30 -23 35 0 4 -7 7 -15 7 -8 0 -15 7 -15 15 0 8 -9 24 -20 35 -21
21 -50 27 -50 10 0 -5 -7 -10 -15 -10 -19 0 -20 -46 -2 -65 31 -35 37 -45 37
-61 0 -9 11 -27 25 -40 14 -13 25 -30 25 -39 0 -9 6 -23 13 -30 29 -33 37 -45
37 -55 0 -5 5 -10 10 -10 6 0 10 -11 10 -25 0 -14 5 -25 11 -25 14 0 39 -25
39 -39 0 -6 11 -11 25 -11 14 0 25 -4 25 -9 0 -5 11 -12 25 -15 14 -4 25 -11
25 -16 0 -6 7 -10 15 -10 8 0 15 -4 15 -10 0 -5 11 -10 25 -10 16 0 25 -6 25
-15 0 -9 9 -15 24 -15 13 0 26 -5 28 -10 5 -16 91 -17 96 -2 2 7 12 12 22 12
10 0 20 7 24 15 3 8 15 15 26 15 11 0 20 5 20 10 0 6 7 10 15 10 8 0 15 4 15
10 0 5 11 12 25 16 14 3 25 10 25 15 0 5 11 9 25 9 16 0 25 6 25 15 0 9 9 15
25 15 14 0 25 5 25 10 0 6 5 10 11 10 6 0 17 6 24 13 36 31 45 37 64 37 10 0
21 7 25 15 3 8 15 15 26 15 11 0 20 5 20 10 0 6 7 10 15 10 8 0 15 4 15 10 0
5 11 12 25 16 14 3 25 10 25 15 0 5 9 9 20 9 11 0 20 4 20 9 0 5 8 11 18 15
45 15 92 59 92 88 0 10 5 18 10 18 6 0 10 20 10 44 0 24 5 46 11 48 6 2 13 25
16 51 3 26 10 47 14 47 5 0 9 22 9 49 0 27 5 51 11 53 10 3 17 29 36 121 3 15
9 27 14 27 5 0 9 6 9 13 0 7 11 24 25 39 14 15 25 32 25 38 0 5 7 10 15 10 8
0 15 7 15 15 0 8 5 15 10 15 6 0 10 5 10 10 0 6 -4 10 -10 10 -5 0 -10 -4 -10
-10z"/>
<path d="M5200 5420 c0 -5 -11 -12 -25 -16 -14 -3 -25 -10 -25 -15 0 -5 -7 -9
-15 -9 -8 0 -15 -4 -15 -9 0 -5 -9 -13 -20 -16 -11 -3 -23 -17 -26 -31 -3 -13
-10 -24 -15 -24 -5 0 -9 -9 -9 -19 0 -17 18 -31 40 -31 15 0 60 50 60 65 0 8
4 15 9 15 5 0 12 11 15 25 4 14 11 25 16 25 6 0 10 7 10 15 0 8 5 15 10 15 6
0 10 -13 10 -28 0 -16 8 -39 19 -50 17 -20 28 -22 125 -22 64 0 106 4 106 10
0 6 5 10 11 10 19 0 39 28 39 54 l0 26 -150 0 c-93 0 -150 4 -150 10 0 6 -4
10 -10 10 -5 0 -10 -4 -10 -10z"/>
<path d="M6310 4971 c0 -5 7 -16 15 -25 8 -8 15 -24 15 -35 0 -12 5 -21 10
-21 6 0 10 -11 10 -24 0 -13 7 -26 15 -30 9 -3 15 -19 15 -41 0 -24 -4 -35
-15 -35 -9 0 -15 -9 -15 -25 0 -14 -4 -25 -10 -25 -5 0 -10 -9 -10 -21 0 -11
-7 -27 -15 -35 -8 -9 -15 -26 -15 -40 0 -13 -4 -24 -10 -24 -5 0 -10 -11 -10
-25 0 -14 -4 -25 -10 -25 -5 0 -12 -11 -16 -25 -3 -14 -10 -25 -15 -25 -5 0
-9 -10 -9 -22 0 -13 -7 -32 -15 -42 -8 -11 -15 -28 -15 -38 0 -10 -4 -18 -10
-18 -5 0 -10 -11 -10 -25 0 -14 -4 -25 -9 -25 -5 0 -12 -13 -16 -30 -4 -16
-11 -30 -16 -30 -5 0 -9 -9 -9 -21 0 -11 -7 -27 -15 -35 -8 -9 -15 -24 -15
-35 0 -10 -4 -19 -10 -19 -5 0 -10 -13 -10 -30 0 -16 -4 -30 -10 -30 -5 0 -12
-11 -16 -25 -3 -14 -10 -25 -15 -25 -5 0 -9 -11 -9 -25 0 -14 -4 -25 -10 -25
-5 0 -10 -9 -10 -21 0 -11 -7 -27 -15 -35 -8 -9 -15 -26 -15 -40 0 -13 -4 -24
-9 -24 -5 0 -12 -11 -15 -25 -4 -14 -11 -25 -16 -25 -6 0 -10 -11 -10 -25 0
-14 -4 -25 -10 -25 -5 0 -10 -9 -10 -21 0 -11 -7 -27 -15 -35 -8 -9 -15 -26
-15 -40 0 -13 -4 -24 -10 -24 -5 0 -10 -11 -10 -24 0 -13 -7 -26 -15 -30 -8
-3 -15 -15 -15 -26 0 -11 -4 -20 -10 -20 -5 0 -10 -9 -10 -19 0 -21 -30 -84
-42 -89 -5 -2 -8 -14 -8 -27 0 -13 -7 -30 -15 -39 -8 -8 -15 -24 -15 -35 0
-12 -4 -21 -10 -21 -5 0 -10 -11 -10 -25 0 -14 -4 -25 -10 -25 -5 0 -12 -11
-16 -25 -3 -14 -10 -25 -15 -25 -5 0 -9 -11 -9 -25 0 -14 -4 -25 -10 -25 -5 0
-12 -11 -16 -25 -13 -53 -24 -21 -24 73 -1 69 -5 103 -15 116 -8 11 -15 30
-15 43 0 13 -4 23 -10 23 -5 0 -10 16 -10 35 0 19 -4 35 -10 35 -5 0 -12 16
-16 35 -3 19 -10 35 -15 35 -5 0 -9 14 -9 30 0 17 -4 30 -9 30 -5 0 -12 16
-15 35 -4 19 -11 35 -16 35 -6 0 -10 16 -10 35 0 19 -4 35 -10 35 -5 0 -13 18
-16 40 -4 22 -10 40 -15 40 -5 0 -9 13 -9 30 0 22 12 42 50 80 28 28 50 55 50
61 0 5 11 20 25 33 14 13 25 26 25 30 0 11 27 36 39 36 6 0 11 5 11 10 0 6 11
23 25 38 14 15 25 32 25 38 0 7 7 14 15 18 8 3 15 14 15 25 0 11 -7 26 -15 35
-8 8 -15 19 -15 25 0 6 -7 11 -15 11 -8 0 -15 5 -15 11 0 6 -16 26 -35 45 -19
18 -35 38 -35 44 0 6 -16 26 -35 44 -19 19 -35 39 -35 45 0 6 -7 11 -15 11 -8
0 -15 5 -15 10 0 17 -239 13 -256 -4 -8 -8 -14 -17 -14 -21 0 -4 -6 -13 -12
-20 -30 -33 -38 -45 -38 -55 0 -5 -5 -10 -11 -10 -14 0 -39 -25 -39 -39 0 -6
-7 -11 -15 -11 -8 0 -15 -5 -15 -11 0 -6 -6 -17 -12 -24 -30 -33 -38 -45 -38
-55 0 -5 -4 -10 -10 -10 -25 0 -6 -45 40 -92 28 -28 50 -56 50 -61 0 -5 16
-24 35 -43 19 -18 35 -37 35 -43 0 -6 7 -11 15 -11 8 0 15 -5 15 -10 0 -11 10
-25 48 -65 16 -18 22 -36 22 -70 0 -25 -4 -45 -10 -45 -5 0 -10 -10 -10 -22 0
-13 -7 -32 -15 -42 -8 -11 -15 -30 -15 -43 0 -13 -4 -23 -10 -23 -5 0 -10 -11
-10 -24 0 -14 -7 -31 -15 -40 -8 -8 -15 -26 -15 -40 0 -14 -4 -26 -10 -26 -5
0 -10 -11 -10 -24 0 -14 -7 -31 -15 -40 -8 -8 -15 -24 -15 -35 0 -12 -4 -21
-10 -21 -5 0 -10 -15 -10 -34 0 -19 -5 -36 -12 -38 -7 -3 -14 -32 -16 -76 -2
-40 -8 -72 -13 -72 -5 0 -9 9 -9 20 0 11 -7 23 -15 26 -8 4 -15 17 -15 30 0
13 -4 24 -10 24 -5 0 -10 11 -10 24 0 14 -7 31 -15 40 -8 8 -15 24 -15 35 0
12 -4 21 -10 21 -5 0 -10 11 -10 25 0 14 -4 25 -10 25 -5 0 -12 16 -16 35 -3
19 -10 35 -15 35 -5 0 -9 14 -9 30 0 17 -4 30 -10 30 -5 0 -12 11 -16 25 -3
14 -10 25 -15 25 -5 0 -9 16 -9 35 0 19 -4 35 -10 35 -5 0 -12 11 -16 25 -3
14 -10 25 -15 25 -5 0 -9 16 -9 35 0 19 -4 35 -9 35 -5 0 -12 11 -15 25 -4 14
-11 25 -16 25 -6 0 -10 14 -10 30 0 17 -4 30 -10 30 -5 0 -10 8 -10 18 0 10
-7 27 -15 38 -8 10 -15 29 -15 42 0 12 -4 22 -9 22 -5 0 -12 16 -15 35 -4 19
-11 35 -16 35 -6 0 -10 11 -10 25 0 14 -4 25 -10 25 -5 0 -10 9 -10 21 0 11
-7 27 -15 35 -8 9 -15 26 -15 40 0 13 -4 24 -10 24 -5 0 -10 11 -10 24 0 13
-7 29 -15 36 -8 7 -15 21 -15 31 0 11 -4 19 -10 19 -5 0 -10 11 -10 24 0 14
-7 31 -15 40 -8 8 -15 24 -15 35 0 12 -4 21 -10 21 -5 0 -10 15 -10 34 0 21
-6 36 -15 40 -8 3 -15 15 -15 26 0 11 -4 20 -10 20 -5 0 -10 11 -10 25 0 14
-4 25 -9 25 -5 0 -13 14 -16 32 -6 23 -3 35 9 43 9 7 16 22 16 34 0 11 5 21
10 21 6 0 10 8 10 18 0 9 7 26 15 36 26 34 19 48 -17 41 -18 -4 -34 -11 -36
-16 -2 -5 -17 -9 -33 -9 -16 0 -29 -4 -29 -10 0 -5 -11 -12 -25 -16 -14 -3
-25 -10 -25 -15 0 -5 -11 -9 -25 -9 -14 0 -25 -4 -25 -10 0 -5 -11 -10 -24
-10 -14 0 -31 -7 -40 -15 -8 -8 -24 -15 -35 -15 -12 0 -21 -4 -21 -10 0 -5 -9
-10 -21 -10 -11 0 -27 -7 -35 -15 -9 -8 -26 -15 -40 -15 -13 0 -24 -4 -24 -9
0 -5 -11 -12 -25 -15 -14 -4 -25 -11 -25 -16 0 -6 -13 -10 -30 -10 -16 0 -30
-4 -30 -10 0 -5 -8 -10 -18 -10 -10 0 -27 -7 -38 -15 -10 -8 -27 -15 -36 -15
-10 0 -18 -4 -18 -10 0 -5 -10 -10 -22 -10 -26 -1 -58 -22 -58 -39 0 -6 -4
-11 -9 -11 -5 0 -11 -18 -15 -40 -3 -22 -11 -40 -16 -40 -6 0 -10 -9 -10 -21
0 -26 -23 -49 -50 -49 -12 0 -28 -7 -36 -15 -9 -8 -26 -15 -40 -15 -13 0 -24
-4 -24 -10 0 -5 -11 -10 -25 -10 -14 0 -25 -4 -25 -10 0 -5 -16 -12 -35 -16
-19 -3 -35 -10 -35 -15 0 -5 -11 -9 -25 -9 -14 0 -25 -4 -25 -9 0 -5 -13 -12
-30 -16 -16 -4 -30 -11 -30 -16 0 -5 -16 -9 -35 -9 -19 0 -35 -4 -35 -10 0 -5
-11 -12 -25 -16 -14 -3 -25 -10 -25 -15 0 -5 -16 -9 -35 -9 -19 0 -35 -4 -35
-10 0 -5 -11 -10 -25 -10 -16 0 -25 -6 -25 -15 0 -10 -11 -15 -35 -15 -19 0
-35 -4 -35 -9 0 -5 -13 -12 -30 -16 -17 -4 -30 -11 -30 -16 0 -5 -16 -9 -35
-9 -19 0 -35 -4 -35 -9 0 -5 -11 -12 -25 -15 -14 -4 -25 -11 -25 -16 0 -6 -16
-10 -35 -10 -19 0 -35 -4 -35 -10 0 -5 -11 -10 -24 -10 -13 0 -26 -7 -30 -15
-3 -8 -17 -15 -31 -15 -14 0 -25 -4 -25 -10 0 -5 -14 -10 -30 -10 -18 0 -33
-6 -36 -15 -4 -8 -17 -15 -30 -15 -13 0 -24 -4 -24 -10 0 -5 -11 -10 -24 -10
-14 0 -31 -7 -40 -15 -8 -8 -24 -15 -35 -15 -12 0 -21 -4 -21 -10 0 -5 -15
-10 -34 -10 -21 0 -36 -6 -40 -15 -3 -8 -17 -15 -31 -15 -14 0 -25 -4 -25 -10
0 -5 -11 -10 -24 -10 -13 0 -29 -7 -36 -15 -7 -8 -23 -15 -36 -15 -13 0 -24
-4 -24 -10 0 -5 -9 -10 -21 -10 -29 0 -45 -19 -53 -63 -4 -20 -11 -37 -16 -37
-6 0 -10 -27 -10 -60 0 -33 -4 -60 -10 -60 -6 0 -10 -26 -10 -59 0 -32 -7 -75
-15 -94 -8 -20 -15 -61 -15 -92 0 -30 -4 -55 -10 -55 -5 0 -10 -21 -10 -47 0
-27 -7 -66 -15 -88 -8 -22 -14 -57 -15 -77 0 -21 -4 -38 -10 -38 -6 0 -10 -31
-10 -74 0 -43 -4 -76 -10 -78 -6 -2 -13 -36 -17 -76 -3 -39 -10 -72 -14 -72
-5 0 -9 -29 -9 -65 0 -36 -4 -65 -9 -65 -5 0 -12 -31 -16 -70 -4 -38 -11 -70
-16 -70 -5 0 -9 -34 -9 -75 0 -41 -4 -75 -9 -75 -5 0 -12 -29 -16 -65 -3 -36
-11 -65 -16 -65 -5 0 -9 -31 -9 -70 0 -38 -4 -70 -9 -70 -5 0 -12 -34 -16 -75
-4 -41 -11 -75 -16 -75 -5 0 -9 -29 -9 -65 0 -36 -4 -65 -9 -65 -4 0 -11 -32
-14 -71 -3 -39 -10 -76 -16 -82 -5 -7 -11 -42 -12 -79 -3 -80 -11 -69 161
-221 635 -559 1416 -969 2231 -1171 297 -74 599 -123 898 -146 174 -13 748
-13 922 0 445 35 867 119 1289 260 682 227 1302 583 1840 1057 159 141 176
159 162 175 -5 7 -12 38 -15 68 -7 68 -22 160 -35 220 -19 83 -32 155 -37 208
-3 29 -9 61 -15 72 -5 10 -10 46 -10 79 0 34 -4 61 -9 61 -4 0 -11 30 -14 66
-2 36 -10 71 -16 77 -6 6 -11 37 -11 69 0 32 -4 58 -10 58 -5 0 -10 24 -10 54
0 29 -7 73 -15 96 -8 23 -15 64 -15 91 0 27 -4 49 -10 49 -6 0 -10 28 -10 64
0 41 -4 66 -12 68 -7 3 -14 32 -16 76 -2 40 -8 72 -13 72 -5 0 -9 25 -9 55 0
31 -7 72 -15 92 -8 19 -15 57 -15 84 0 27 -4 49 -10 49 -5 0 -10 25 -10 56 0
30 -5 64 -11 75 -5 11 -13 51 -16 90 -3 38 -10 69 -14 69 -5 0 -9 27 -9 59 0
33 -4 62 -9 65 -5 3 -12 22 -15 41 -6 32 -10 35 -41 35 -19 0 -35 4 -35 9 0 5
-11 12 -25 15 -14 4 -25 11 -25 16 0 6 -11 10 -25 10 -14 0 -25 5 -25 10 0 6
-11 10 -24 10 -14 0 -31 7 -40 15 -8 8 -26 15 -40 15 -14 0 -26 5 -26 10 0 6
-8 10 -17 10 -10 0 -27 7 -37 15 -11 8 -30 15 -43 15 -13 0 -23 5 -23 10 0 6
-6 10 -14 10 -17 0 -80 32 -84 43 -2 4 -14 7 -27 7 -13 0 -30 7 -39 15 -8 8
-24 15 -35 15 -12 0 -21 5 -21 10 0 6 -10 10 -23 10 -13 0 -32 7 -43 15 -10 8
-27 15 -36 15 -10 0 -18 5 -18 10 0 6 -12 10 -26 10 -14 0 -32 7 -40 15 -9 8
-26 15 -40 15 -13 0 -24 5 -24 10 0 6 -11 10 -25 10 -14 0 -25 4 -25 10 0 5
-11 12 -25 16 -14 3 -25 10 -25 15 0 5 -16 9 -35 9 -19 0 -35 4 -35 9 0 5 -11
12 -25 15 -14 4 -25 11 -25 16 0 6 -13 10 -30 10 -16 0 -30 5 -30 10 0 6 -9
10 -19 10 -11 0 -26 7 -35 15 -8 8 -26 15 -40 15 -14 0 -26 4 -26 9 0 10 -78
41 -103 41 -9 0 -17 4 -17 9 0 5 -11 12 -25 15 -14 4 -25 11 -25 16 0 6 -16
10 -35 10 -19 0 -35 4 -35 9 0 5 -11 12 -25 15 -14 4 -25 11 -25 16 0 6 -11
10 -25 10 -18 0 -25 5 -25 20 0 11 -7 23 -15 26 -8 4 -15 15 -15 25 0 10 -3
19 -8 19 -7 0 -25 29 -37 61 -8 18 -56 49 -79 49 -9 0 -16 5 -16 10 0 6 -11
10 -25 10 -14 0 -25 4 -25 9 0 5 -13 12 -30 16 -16 4 -30 11 -30 16 0 5 -11 9
-25 9 -14 0 -25 4 -25 10 0 5 -11 12 -25 16 -14 3 -25 10 -25 15 0 5 -11 9
-24 9 -14 0 -31 7 -40 15 -8 8 -24 15 -35 15 -12 0 -21 5 -21 10 0 6 -11 10
-25 10 -14 0 -25 4 -25 10 0 5 -11 12 -25 16 -14 3 -25 10 -25 15 0 5 -11 9
-25 9 -14 0 -25 4 -25 9 0 5 -11 12 -25 15 -14 4 -25 11 -25 16 0 6 -16 10
-35 10 -19 0 -35 5 -35 10 0 6 -7 10 -15 10 -8 0 -15 -4 -15 -9z m-820 -2116
c0 -25 -4 -45 -10 -45 -5 0 -10 -7 -10 -15 0 -12 -19 -15 -114 -15 l-115 0
-12 35 c-7 19 -17 35 -21 35 -4 0 -8 11 -8 25 l0 25 145 0 145 0 0 -45z"/>
</g>
</svg>
